<?xml version="1.0" encoding="UTF-8" standalone="yes"?>
<svg version="1.2" width="1024.000000pt" height="1024.000000pt" viewBox="0 0 1024.000000 1024.000000" preserveAspectRatio="xMidYMid meet" baseProfile="tiny-ps" xmlns="http://www.w3.org/2000/svg">
  <title>bimi-svg-tiny-12-ps</title>
  <g transform="translate(0.000000,1024.000000) scale(0.100000,-0.100000)" fill="#000000" stroke="none">
    <path d="M0 5120 l0 -5120 5120 0 5120 0 0 5120 0 5120 -5120 0 -5120 0 0&#xA;-5120z m6316 2572 c-93 -127 -293 -280 -478 -366 -189 -88 -346 -133 -583&#xA;-166 -162 -22 -209 -35 -323 -87 -81 -36 -89 -47 -27 -33 22 5 127 10 233 10&#xA;370 0 559 39 695 143 26 21 49 37 51 37 3 0 -7 -21 -22 -47 -59 -108 -199&#xA;-216 -359 -279 -40 -15 -71 -29 -69 -31 8 -8 215 30 287 53 120 38 200 98 311&#xA;232 l27 33 73 -37 c175 -87 361 -227 514 -386 294 -306 429 -695 369 -1066&#xA;-81 -500 -535 -1055 -1165 -1425 -154 -90 -727 -375 -830 -412 -203 -74 -446&#xA;-133 -708 -171 -147 -21 -469 -30 -557 -15 -77 13 -222 58 -230 71 -3 4 16 1&#xA;43 -7 65 -21 342 -29 457 -14 182 24 340 73 700 216 419 166 721 340 1055 606&#xA;395 314 658 699 734 1071 20 97 21 282 2 381 -29 151 -95 294 -180 392 l-35&#xA;40 25 -63 c49 -122 67 -233 68 -402 0 -132 -4 -171 -27 -267 -96 -413 -405&#xA;-839 -832 -1150 -69 -50 -265 -167 -270 -161 -2 2 33 35 77 73 321 282 586&#xA;715 653 1066 73 385 -107 780 -442 970 -29 16 -53 27 -53 24 0 -2 23 -28 51&#xA;-57 55 -58 142 -183 183 -265 70 -140 106 -302 106 -478 0 -142 -18 -258 -58&#xA;-376 -28 -82 -109 -249 -97 -199 4 14 9 70 12 125 7 134 -13 231 -73 355 -87&#xA;176 -243 303 -453 370 -98 31 -125 33 -72 6 47 -25 157 -132 207 -202 59 -83&#xA;127 -230 155 -334 31 -114 33 -335 5 -455 -52 -223 -165 -416 -349 -592 -211&#xA;-203 -469 -348 -784 -443 -367 -111 -682 -110 -922 2 -70 32 -78 45 -15 23 71&#xA;-24 213 -38 329 -32 352 19 728 167 1011 398 251 205 438 536 421 745 -6 82&#xA;-50 176 -111 236 -60 61 -173 118 -233 118 -110 0 -203 -101 -203 -221 0 -43&#xA;32 -89 62 -89 17 0 19 -4 13 -27 -21 -84 -158 -182 -284 -202 -111 -18 -226&#xA;15 -294 83 -65 64 -71 86 -75 241 l-3 140 29 -45 c54 -83 98 -110 178 -110 86&#xA;0 164 50 209 132 37 68 46 194 21 280 -20 68 -80 139 -150 176 -45 24 -62 27&#xA;-146 27 -86 0 -101 -3 -160 -31 -122 -58 -179 -130 -180 -227 0 -62 21 -111&#xA;67 -155 26 -24 31 -33 18 -29 -11 3 -45 12 -75 21 -78 22 -117 49 -141 100&#xA;-20 39 -27 45 -78 59 -32 9 -69 25 -84 37 -63 49 -75 225 -24 327 15 28 31 54&#xA;37 58 5 3 10 10 10 15 0 5 -32 -9 -70 -32 -73 -41 -100 -75 -100 -123 0 -14&#xA;-4 -25 -9 -25 -18 0 -113 94 -131 131 -32 61 -26 98 24 165 51 69 213 229 377&#xA;372 143 125 153 139 145 201 l-6 46 102 101 c185 182 272 247 458 339 126 64&#xA;258 113 405 154 172 47 211 54 690 121 357 51 674 140 850 238 28 16 52 27 54&#xA;26 2 -2 -13 -25 -33 -52z m-3033 -4635 c45 -30 62 -65 62 -132 0 -52 -4 -67&#xA;-28 -98 -39 -52 -60 -61 -161 -67 l-89 -5 -1 -80 -1 -80 -45 1 -45 0 -3 233&#xA;c-2 128 -1 238 1 244 3 9 43 11 144 7 110 -4 145 -9 166 -23z m405 -78 c24&#xA;-57 70 -168 102 -246 l58 -141 -50 2 -51 3 -21 54 -22 53 -99 0 -100 0 -22&#xA;-55 -22 -54 -48 0 -49 0 93 225 c51 124 97 234 102 245 6 15 17 20 47 19 l38&#xA;-1 44 -104z m475 -66 l122 -173 3 173 2 172 43 -1 42 -1 3 -245 2 -245 -47 -1&#xA;-48 -2 -125 181 -125 180 -5 -178 -5 -179 -42 -1 -43 -1 0 242 c0 134 2 245 4&#xA;247 2 2 25 4 51 4 l46 0 122 -172z m707 130 l0 -43 -80 0 -80 0 0 -203 0 -204&#xA;-45 -1 -45 -2 0 204 0 205 -77 3 -76 3 0 38 c1 20 2 38 2 40 1 1 91 2 201 2&#xA;l200 0 0 -42z m194 -59 l1 -99 113 -3 112 -3 0 103 0 104 45 -1 45 0 0 -247 0&#xA;-248 -45 0 -45 0 0 105 0 105 -115 0 -115 0 0 -103 0 -104 -45 0 -45 -1 0 242&#xA;c0 134 2 245 4 247 2 2 23 3 46 3 l42 -1 2 -99z m776 60 l0 -45 -122 2 -123 1&#xA;-3 -61 -3 -61 111 0 110 0 0 -40 0 -40 -110 0 -111 0 3 -62 3 -63 123 3 122 4&#xA;0 -46 0 -46 -170 0 -170 0 0 248 0 247 170 2 170 2 0 -45z m395 35 c57 -16&#xA;102 -65 110 -122 10 -62 -24 -133 -76 -162 l-37 -20 59 -89 c33 -49 59 -90 59&#xA;-91 0 -1 -25 -3 -55 -4 l-55 -2 -61 96 c-60 93 -62 95 -100 95 l-39 0 0 -95 0&#xA;-95 -45 0 -45 0 0 250 0 250 123 0 c67 0 140 -5 162 -11z m658 -6 c4 -14 159&#xA;-390 194 -470 4 -10 -9 -13 -44 -13 l-50 0 -24 56 -24 56 -99 0 -99 0 -23 -54&#xA;c-22 -52 -23 -53 -68 -56 -25 -2 -46 -1 -46 2 0 4 41 106 91 228 50 123 95&#xA;233 100 246 7 18 16 22 48 22 28 0 40 -5 44 -17z m387 -233 l0 -250 -45 0 -45&#xA;0 0 250 0 250 45 0 45 0 0 -250z"/>
    <path d="M4380 6724 c-135 -29 -243 -79 -323 -150 -20 -19 -42 -34 -47 -34 -6&#xA;0 -10 -4 -10 -10 0 -10 71 13 110 36 39 23 -79 -83 -132 -119 -53 -35 -64 -56&#xA;-19 -32 16 8 80 28 143 45 123 34 148 47 253 138 80 71 141 106 216 126 l54&#xA;15 -90 0 c-49 -1 -119 -7 -155 -15z"/>
    <path d="M4924 4538 l-19 -23 23 19 c12 11 22 21 22 23 0 8 -8 2 -26 -19z"/>
    <path d="M5169 4503 c-13 -16 -12 -17 4 -4 9 7 17 15 17 17 0 8 -8 3 -21 -13z"/>
    <path d="M4815 4418 l-40 -43 43 40 c39 36 47 45 39 45 -2 0 -21 -19 -42 -42z"/>
    <path d="M5079 4413 l-24 -28 28 24 c15 14 27 26 27 28 0 8 -8 1 -31 -24z"/>
    <path d="M4999 4343 c-13 -16 -12 -17 4 -4 9 7 17 15 17 17 0 8 -8 3 -21 -13z"/>
    <path d="M4689 4313 c-13 -16 -12 -17 4 -4 16 13 21 21 13 21 -2 0 -10 -8 -17&#xA;-17z"/>
    <path d="M4959 4313 c-13 -16 -12 -17 4 -4 16 13 21 21 13 21 -2 0 -10 -8 -17&#xA;-17z"/>
    <path d="M4640 4279 c-22 -18 -22 -19 -3 -10 12 6 25 16 28 21 9 15 3 12 -25&#xA;-11z"/>
    <path d="M4899 4269 l-24 -20 28 17 c15 9 27 18 27 20 0 8 -8 4 -31 -17z"/>
    <path d="M5374 4244 c-18 -14 -18 -15 4 -4 12 6 22 13 22 15 0 8 -5 6 -26 -11z"/>
    <path d="M4574 4234 c-18 -14 -18 -15 4 -4 12 6 22 13 22 15 0 8 -5 6 -26 -11z"/>
    <path d="M4839 4229 l-24 -20 28 17 c15 9 27 18 27 20 0 8 -8 4 -31 -17z"/>
    <path d="M4524 4204 c-18 -14 -18 -15 4 -4 12 6 22 13 22 15 0 8 -5 6 -26 -11z"/>
    <path d="M4700 4153 c-95 -50 -109 -60 -65 -43 36 14 155 79 155 85 0 6 6 9&#xA;-90 -42z"/>
    <path d="M5645 4190 c-3 -6 1 -7 9 -4 18 7 21 14 7 14 -6 0 -13 -4 -16 -10z"/>
    <path d="M4448 4163 c-27 -14 -46 -28 -45 -30 5 -4 97 47 97 53 0 6 -1 5 -52&#xA;-23z"/>
    <path d="M4370 4120 c-9 -6 -10 -10 -3 -10 6 0 15 5 18 10 8 12 4 12 -15 0z"/>
    <path d="M5448 4094 c-38 -19 -68 -37 -68 -39 0 -5 139 62 149 71 14 13 -23&#xA;-2 -81 -32z"/>
    <path d="M4250 4074 c-195 -79 -416 -119 -625 -112 -77 3 -149 8 -160 12 -16&#xA;6 -17 5 -4 -3 8 -5 53 -20 100 -33 71 -19 109 -22 254 -23 191 0 292 15 485&#xA;71 121 36 304 103 297 110 -2 2 -30 -7 -63 -20 -32 -13 -90 -34 -128 -46 -57&#xA;-19 -70 -20 -77 -9 -7 11 -9 10 -9 -3 0 -10 -6 -18 -12 -19 -13 -1 -18 -2 -68&#xA;-14 -17 -5 -21 -4 -11 3 9 7 10 12 2 16 -15 10 -31 -2 -31 -22 0 -13 -4 -11&#xA;-16 6 -13 20 -18 21 -32 10 -15 -11 -15 -11 -5 3 7 9 9 19 5 23 -4 4 -2 7 3 5&#xA;6 -1 18 1 27 5 10 5 27 1 42 -9 14 -10 26 -13 26 -8 0 6 -10 15 -22 20 -22 10&#xA;-21 11 16 21 22 6 44 8 50 5 6 -3 7 -2 3 2 -4 5 7 17 25 27 51 27 21 19 -72&#xA;-18z m-160 -78 c0 -3 -4 -8 -10 -11 -5 -3 -10 -1 -10 4 0 6 5 11 10 11 6 0 10&#xA;-2 10 -4z m83 -20 c4 -10 0 -14 -13 -13 -14 1 -16 4 -8 14 13 16 15 16 21 -1z&#xA;m-98 -26 c-3 -5 -12 -10 -18 -10 -7 0 -6 4 3 10 19 12 23 12 15 0z"/>
    <path d="M5100 4090 c-9 -6 -10 -10 -3 -10 6 0 15 5 18 10 8 12 4 12 -15 0z"/>
    <path d="M5060 4070 c-9 -6 -10 -10 -3 -10 6 0 15 5 18 10 8 12 4 12 -15 0z"/>
    <path d="M4960 4025 c-25 -13 -40 -24 -35 -24 6 0 30 11 55 24 25 13 41 24 35&#xA;24 -5 0 -30 -11 -55 -24z"/>
    <path d="M5321 4034 c-18 -8 -31 -17 -28 -20 3 -3 22 4 44 15 44 23 34 26 -16&#xA;5z"/>
    <path d="M4190 4009 c0 -5 5 -7 10 -4 6 3 10 8 10 11 0 2 -4 4 -10 4 -5 0 -10&#xA;-5 -10 -11z"/>
    <path d="M5191 3965 c-65 -34 -88 -42 -98 -33 -10 8 -12 7 -8 -4 4 -11 -2 -18&#xA;-18 -22 -14 -3 -32 -9 -41 -12 -12 -5 -15 -2 -9 12 4 12 3 15 -6 10 -7 -5 -10&#xA;-14 -7 -22 7 -18 -18 -18 -36 -1 -7 8 -22 13 -33 11 -10 -2 -26 1 -35 6 -11 6&#xA;-21 5 -28 -2 -9 -9 -12 -9 -12 1 0 11 -3 11 -15 1 -10 -9 -15 -9 -15 -1 0 21&#xA;-20 11 -26 -14 -7 -30 -9 -30 -36 -5 -22 21 -41 19 -20 -2 16 -16 15 -31 0&#xA;-21 -13 8 -29 12 -60 15 -10 1 -18 6 -18 11 0 5 6 7 14 4 8 -3 16 -3 18 1 2 4&#xA;49 27 106 51 56 24 101 46 99 47 -1 2 -106 -37 -232 -87 -412 -162 -575 -201&#xA;-835 -202 -131 -1 -157 -3 -125 -11 67 -16 434 -12 573 8 246 34 517 98 723&#xA;172 80 28 257 112 265 126 7 11 8 12 -85 -37z m-281 -89 c0 -8 -2 -8 -8 0 -5&#xA;9 -11 8 -20 -2 -10 -10 -10 -14 -1 -14 7 0 9 -3 6 -7 -8 -7 -47 25 -47 39 0 4&#xA;5 8 11 8 5 0 7 -4 4 -10 -3 -5 -2 -10 3 -10 6 0 13 7 16 16 5 13 9 14 21 4 8&#xA;-7 15 -18 15 -24z m-85 7 c-4 -10 -8 -27 -10 -38 -1 -13 -9 -20 -23 -21 -21&#xA;-2 -21 -1 -1 3 20 4 20 5 2 18 -17 13 -17 14 0 15 10 0 17 8 17 20 0 11 5 20&#xA;11 20 7 0 8 -7 4 -17z m125 2 c5 3 11 1 14 -4 3 -5 -3 -11 -14 -14 -16 -4 -20&#xA;0 -19 16 0 12 3 16 6 9 2 -6 9 -10 13 -7z m-320 -15 c-8 -5 -22 -9 -30 -9 -10&#xA;0 -8 3 5 9 27 12 43 12 25 0z m65 -31 c11 -16 1 -19 -13 -3 -7 8 -8 14 -3 14&#xA;5 0 13 -5 16 -11z m-35 -19 c0 -5 -5 -10 -11 -10 -5 0 -7 5 -4 10 3 6 8 10 11&#xA;10 2 0 4 -4 4 -10z"/>
    <path d="M5046 3923 c-6 -14 -5 -15 5 -6 7 7 10 15 7 18 -3 3 -9 -2 -12 -12z"/>
    <path d="M4715 3890 c3 -5 8 -10 11 -10 2 0 4 5 4 10 0 6 -5 10 -11 10 -5 0&#xA;-7 -4 -4 -10z"/>
    <path d="M3070 3005 c-1 0 -2 -37 -3 -83 l-2 -82 67 0 c82 0 95 5 114 42 18&#xA;34 11 78 -14 101 -14 12 -86 22 -162 22z"/>
    <path d="M3571 2883 c-17 -43 -31 -81 -31 -85 0 -5 29 -8 65 -8 36 0 65 1 65&#xA;3 0 5 -61 162 -64 165 -2 1 -18 -32 -35 -75z"/>
    <path d="M6040 2930 l0 -70 85 0 c99 0 125 15 125 73 0 55 -23 67 -123 67&#xA;l-87 0 0 -70z"/>
    <path d="M6813 2877 l-31 -82 60 -3 c33 -2 62 -1 64 1 4 4 -48 153 -57 161 -3&#xA;3 -19 -32 -36 -77z"/>
  </g>
</svg>